<?xml version="1.0" encoding="UTF-8"?>
<!DOCTYPE svg PUBLIC "-//W3C//DTD SVG 1.1//EN" "http://www.w3.org/Graphics/SVG/1.1/DTD/svg11.dtd">
<!-- Creator: CorelDRAW X7 -->
<svg xmlns="http://www.w3.org/2000/svg" xml:space="preserve" width="67.501mm" height="21.742mm" version="1.1" style="shape-rendering:geometricPrecision; text-rendering:geometricPrecision; image-rendering:optimizeQuality; fill-rule:evenodd; clip-rule:evenodd"
viewBox="0 0 6750 2174"
 xmlns:xlink="http://www.w3.org/1999/xlink"
 aria-hidden="true"
 focusable="false"
 data-prefix="fas"
 data-icon="file-alt"
 role="img">
 <defs>
  <style type="text/css">
   <![CDATA[
    .fil0 {fill:#003399}
    .fil3 {fill:#6699FF}
    .fil1 {fill:#003399;fill-rule:nonzero}
    .fil2 {fill:#6699FF;fill-rule:nonzero}
   ]]>
  </style>
 </defs>
 <g id="Layer_x0020_1">
  <metadata id="CorelCorpID_0Corel-Layer"/>
  <g id="_1767927743952">
   <path class="fil0" d="M650 395l0 -395 -580 0c-39,0 -70,31 -70,70l0 1347c0,38 31,70 70,70l975 0c39,0 70,-32 70,-70l0 -952 -395 0c-38,0 -70,-32 -70,-70zm186 685c0,19 -15,35 -35,35l-487 0c-20,0 -35,-16 -35,-35l0 -23c0,-19 15,-35 35,-35l487 0c20,0 35,16 35,35l0 23zm0 -186c0,19 -15,35 -35,35l-487 0c-20,0 -35,-16 -35,-35l0 -23c0,-19 15,-35 35,-35l487 0c20,0 35,16 35,35l0 23zm0 -209l0 23c0,20 -15,35 -35,35l-487 0c-20,0 -35,-15 -35,-35l0 -23c0,-19 15,-35 35,-35l487 0c20,0 35,16 35,35zm279 -331l0 18 -372 0 0 -372 18 0c19,0 36,7 49,20l285 285c13,13 20,31 20,49z"/>
   <polygon class="fil1" points="4722,38 4939,38 4939,846 5082,846 5333,494 5581,494 5252,944 5583,1458 5335,1458 5056,1026 4939,1026 4939,1458 4722,1458 "/>
   <path class="fil2" d="M4027 1303c48,0 87,-7 117,-22 30,-14 53,-35 69,-63 17,-28 28,-62 34,-103 6,-40 8,-87 8,-140 0,-53 -2,-99 -8,-140 -6,-41 -17,-75 -34,-103 -16,-27 -39,-49 -69,-63 -30,-14 -69,-21 -117,-21 -47,0 -86,7 -116,21 -30,14 -53,36 -70,63 -17,28 -28,62 -34,103 -6,41 -8,87 -8,140 0,53 2,100 8,140 6,41 17,75 34,103 17,28 40,49 70,63 30,15 69,22 116,22zm-457 -328c0,-81 9,-154 27,-217 17,-63 45,-116 82,-159 38,-44 85,-77 142,-99 58,-23 126,-34 206,-34 80,0 149,11 206,34 58,22 105,55 142,99 37,43 65,96 82,159 18,63 27,136 27,217 0,82 -9,155 -27,218 -17,64 -45,118 -82,161 -37,43 -84,76 -142,99 -57,22 -126,34 -206,34 -80,0 -148,-12 -206,-34 -57,-23 -104,-56 -142,-99 -37,-43 -65,-97 -82,-161 -18,-63 -27,-136 -27,-218z"/>
   <path class="fil1" d="M2806 1254c31,0 61,0 91,-2 29,-1 56,-7 81,-16 26,-9 49,-23 70,-42 21,-18 39,-45 54,-79 15,-34 26,-77 34,-129 9,-52 13,-116 13,-193 0,-70 -4,-130 -12,-179 -8,-49 -20,-90 -34,-122 -15,-33 -32,-58 -53,-76 -20,-18 -43,-31 -69,-40 -25,-9 -53,-14 -82,-16 -30,-2 -61,-3 -93,-3l-189 0 0 897 189 0zm-408 -1101l468 0c48,0 94,4 138,10 45,7 86,19 123,36 38,17 73,41 104,71 31,31 58,70 79,117 23,48 39,105 51,172 12,67 18,146 18,236 0,94 -6,175 -17,244 -10,69 -26,129 -47,178 -21,49 -46,89 -76,120 -30,32 -64,56 -102,74 -38,18 -80,31 -125,37 -46,7 -94,10 -146,10l-468 0 0 -1305z"/>
   <path class="fil2" d="M1325 965c0,-100 13,-183 39,-248 27,-64 61,-115 105,-152 43,-38 92,-63 148,-78 55,-14 112,-21 171,-21 73,0 134,10 183,30 48,20 87,49 115,85 29,36 49,79 60,130 12,51 18,106 18,168 0,28 -1,58 -3,88 -2,31 -5,62 -8,94l-605 0c0,44 5,80 14,110 9,29 24,53 44,72 20,19 47,32 81,40 34,8 76,13 127,13 43,0 82,-2 120,-4 37,-2 70,-5 98,-8 32,-3 62,-7 89,-12l0 152c-31,12 -65,22 -101,31 -31,8 -68,16 -109,22 -42,6 -86,10 -133,10 -72,0 -136,-10 -192,-27 -56,-18 -103,-48 -142,-89 -38,-41 -68,-95 -88,-162 -21,-66 -31,-148 -31,-244zm639 -66l0 -35c0,-37 -3,-69 -7,-97 -5,-27 -14,-49 -28,-67 -14,-18 -34,-31 -60,-40 -25,-8 -59,-12 -102,-12 -46,0 -83,5 -112,16 -29,10 -51,26 -68,48 -16,20 -27,47 -32,78 -6,31 -9,67 -9,109l418 0z"/>
   <path class="fil0" d="M0 1977c914,-519 4003,384 5571,161 626,-89 1031,-324 1179,-737 -121,90 -228,115 -372,113 287,-207 350,-541 357,-829 -77,56 -164,87 -254,121 63,-112 92,-230 92,-348 -170,-187 -419,-349 -744,-458 647,743 144,1662 -601,1831 -1518,346 -4628,-619 -5228,146z"/>
   <path class="fil3" d="M0 1977c914,-519 4003,384 5571,161 626,-89 1031,-324 1179,-737 -121,90 -228,115 -372,113 287,-207 350,-541 357,-829 -77,56 -164,87 -254,121 63,-112 92,-230 92,-348 -125,-138 -293,-262 -503,-361l-241 -97c1222,976 509,1905 -754,2029 -1671,163 -4159,-676 -5059,-71 -5,7 -11,13 -16,19z"/>
  </g>
 </g>
</svg>
